#!OML:ASF F:\VICON\USERDATA\INSTALL\rory3\rory3.ASF
:FULLY-SPECIFIED
:DEGREES
1012
root 0.740865 16.1837 -0.489811 -148.522 -3.6312 181.77
lowerback -2.11713 3.08936 3.29145
upperback -22.656 -1.5431 -1.78773
thorax -25.5021 -4.07523 -2.66415
lowerneck -1.38512 1.38933 0.0898359
upperneck -27.2771 -0.803095 2.95602
head -8.19809 -1.8305 1.20005
rclavicle -2.127e-014 -8.34896e-015
rhumerus -261.422 -155.423 220.142
rradius 12.781
rwrist 72.157
rhand 27.0064 1.27963
rfingers 7.12502
rthumb 50.9966 -19.4037
lclavicle -2.127e-014 -8.34896e-015
lhumerus -61.1441 10.6221 -5.73947
lradius 19.8517
lwrist -49.1344
lhand 22.1107 26.9543
lfingers 7.12502
lthumb 46.496 49.8394
rfemur -46.0259 6.95799 32.6127
rtibia 41.2489
rfoot -33.0389 -26.429
rtoes 13.7066
lfemur -99.2328 34.5143 -48.3495
ltibia 100.171
lfoot -32.6922 52.485
ltoes 50.0924
1013
root 0.739237 16.1871 -0.488771 -148.644 -3.42997 181.789
lowerback -2.02235 3.12323 3.21619
upperback -22.5676 -1.43791 -1.76855
thorax -25.4213 -3.98313 -2.62815
lowerneck -1.42774 1.39726 0.00869209
upperneck -27.3863 -0.827038 2.95978
head -8.22796 -1.84512 1.22004
rclavicle 1.74931e-014 2.8625e-014
rhumerus -261.089 -155.173 220.488
rradius 12.6888
rwrist 71.8157
rhand 27.2536 1.09497
rfingers 7.12502
rthumb 51.2217 -19.4618
lclavicle 1.74931e-014 2.8625e-014
lhumerus -61.0482 11.6514 -7.2523
lradius 19.5914
lwrist -50.6128
lhand 22.0937 26.424
lfingers 7.12502
lthumb 46.4803 49.3158
rfemur -46.041 8.5004 31.8291
rtibia 41.2844
rfoot -34.1148 -26.732
rtoes 16.145
lfemur -99.357 34.7335 -48.6228
ltibia 99.9426
lfoot -25.2233 55.6527
ltoes 49.5551
1014
root 0.730544 16.1807 -0.482595 -148.785 -3.61941 182.159
lowerback -1.96242 3.14801 3.78315
upperback -22.457 -1.24177 -1.73307
thorax -25.2663 -3.97605 -2.96911
lowerneck -1.37595 1.37237 -0.00381865
upperneck -27.4735 -0.863184 3.0022
head -8.26661 -1.87001 1.24173
rclavicle -8.94531e-015 -8.74653e-015
rhumerus -261.284 -154.774 221.526
rradius 12.7716
rwrist 72.0581
rhand 27.5011 0.773665
rfingers 7.12502
rthumb 51.4469 -19.6548
lclavicle -8.94531e-015 -8.74653e-015
lhumerus -60.6953 12.3325 -8.21043
lradius 19.4798
lwrist -51.3955
lhand 22.0943 26.4494
lfingers 7.12502
lthumb 46.4808 49.341
rfemur -46.0286 9.3925 31.7972
rtibia 41.2916
rfoot -35.2313 -26.5481
rtoes 18.5594
lfemur -99.3289 34.8887 -48.0683
ltibia 100.029
lfoot -29.4775 53.855
ltoes 50.003
1015
root 0.7142 16.184 -0.470992 -148.891 -3.75679 182.334
lowerback -1.93128 3.15507 4.21416
upperback -22.3233 -1.08437 -1.71904
thorax -25.0584 -3.95411 -3.25261
lowerneck -1.35808 1.33199 0.0630659
upperneck -27.488 -0.956069 2.8251
head -8.27482 -1.90573 1.17692
rclavicle -1.59028e-015 -9.93923e-015
rhumerus -260.232 -154.919 219.719
rradius 12.8444
rwrist 69.9217
rhand 27.8379 0.395309
rfingers 7.12502
rthumb 51.753 -19.8559
lclavicle -1.59028e-015 -9.93923e-015
lhumerus -60.2524 12.7586 -8.55143
lradius 19.2826
lwrist -51.5882
lhand 21.8912 26.5222
lfingers 7.12502
lthumb 46.2927 49.4939
rfemur -45.9927 9.4856 31.8754
rtibia 41.2691
rfoot -35.39 -26.4843
rtoes 19.2075
lfemur -99.2182 34.9289 -47.7541
ltibia 100.059
lfoot -30.4753 53.3612
ltoes 50.0836
1016
root 0.701421 16.1965 -0.460454 -148.919 -3.67246 182.112
lowerback -1.97395 3.13182 4.12847
upperback -22.1652 -1.04882 -1.77299
thorax -24.7765 -3.88468 -3.29798
lowerneck -1.30065 1.31477 0.162814
upperneck -27.4691 -1.02152 2.5553
head -8.27969 -1.91974 1.07274
rclavicle -1.44119e-014 1.78906e-014
rhumerus -259.844 -154.55 219.458
rradius 12.9119
rwrist 69.5763
rhand 27.8906 0.35689
rfingers 7.12502
rthumb 51.8009 -19.8663
lclavicle -1.44119e-014 1.78906e-014
lhumerus -59.8906 13.3521 -8.81246
lradius 19.3041
lwrist -51.8639
lhand 21.4445 26.3822
lfingers 7.12502
lthumb 45.8783 49.5272
rfemur -46.0132 9.55154 31.4851
rtibia 41.254
rfoot -35.3384 -26.704
rtoes 19.3297
lfemur -99.0036 34.8857 -47.9881
ltibia 99.9437
lfoot -30.3621 53.4923
ltoes 50.0549
